<?xml version="1.0" encoding="UTF-8"?>
<svg xmlns="http://www.w3.org/2000/svg" id="Laag_1" data-name="Laag 1" version="1.1" viewBox="0 0 1033.6 282.9">
  <defs>
    <style>
      .cls-1 {
        fill: #000;
      }

      .cls-1, .cls-2 {
        stroke-width: 0px;
      }

      .cls-2 {
        fill: #3c3c3b;
      }
    </style>
  </defs>
  <g>
    <path class="cls-2" d="M474.2,127.9c-.1-.7.3-1,.7-1.2.8-.5,1.6-.9,2.4-1.4,1-.6,2-1.1,3-1.7,1.1-.6,2.1-1.1,3.2-1.7,1.2-.6,1.6-1.9,1.1-3.1-.2-.5-.7-.8-1.2-.7-.9,0-1.8.3-2.6.9-1.9,1.2-3.8,2.5-5.6,3.7-2.7,1.8-5.4,3.7-8.2,5.5-.3.2-.7.4-1,.7-.5.4-.9.4-1.5.1,0-.2-.2-.4-.2-.6,0-2.3-.8-4.6-.7-6.9,0-.2,0-.5-.1-.7-.2-.6-.6-1-1.3-1-.3,0-.7,0-1,0-.7,0-1.1.4-1.1,1.1,0,.6,0,1.2,0,1.7.3,1.9.5,3.8.8,5.7.1.7,0,.9-.8,1.3-.3-.8-.4-1.5-.5-2.3,0-.8,0-1.6-.2-2.4-.1-1.1-.2-2.2-.4-3.3-.1-.8-.2-1.5.4-2.2,1.6-.6,3.2-.9,5.1-.6,0,.4,0,.8,0,1.2,0,2.3,0,4.5.1,6.8,0,.5,0,1.1.8,1.2.3-.2.7-.4,1.1-.7,2.2-1.7,4.7-3.1,6.9-4.8,0-.7-.4-1.2-.8-1.6-1.6-1.7-3.2-3.3-4.8-5-.6-.7-1.3-.9-2.1-.9-2,0-4,0-6.1.1-.9,0-1.8.2-2.7.4-.7.1-1.2.6-1.6,1.2-1.9,3-3.8,6.1-5.5,9.2-.3.6-.4,1.2-.4,1.8,0,.8,0,1.6,0,2.4-.6.2-.8,0-.9-.4,0-.5,0-.9,0-1.4,0-.4,0-.9-.2-1.2-.4-.2-.6,0-.9.2-1.2.9-2.4,1.8-3.6,2.7-.3.2-.7.4-1.1.6,0-.3-.1-.5-.2-.7,0-.6-.4-.6-.9-.4,0,.2,0,.4,0,.6,0,0-.2.2-.3.2-.6,0-1.1.2-1.7.3.2.3.3.6.5.9-.2,0-.4.2-.6.2-1.6,0-3.1-.1-4.6.3-.1,0-.3,0-.5-.1-.2-.3-.1-.6.2-.8,1.4-1,2.9-1.9,4.2-3,1-.8,2-1.6,2.9-2.4.3-.3.6-.7.7-1.1.1-.3.1-.8,0-1-.4-.4-.7,0-1,.3-2.8,2-5.6,4.1-8.4,6.1-.4.3-.9.6-1.4.4,0-.2,0-.3,0-.4.9-.7,1.8-1.4,2.6-2.1,0-.5,0-.9-.5-1-.8-.2-1.7-.4-2.5-.6-1-.2-2.1-.3-3.1,0-.9.1-1.7.2-2.6.2-1.4,0-2.8.3-4.1.6-1.9.4-3.8.9-5.7,1.4-.2,0-.3,0-.5,0-1.6,0-3.2.2-4.8.7-1,.3-2,.5-3,.7-1.4.4-2.8.8-4,1.6-.6.4-1.2.6-2.1.4.2-.2.3-.5.5-.6,1.5-1.2,3.2-1.8,5-2.4,1.4-.4,2.8-.5,4.3-.7,1.7-.2,3.5-.3,5.1-.7,2.2-.5,4.3-1.1,6.5-1.7.4-.1.7-.4.7-.9,0-.3,0-.6,0-.9-.3-3.4.2-6.7.2-10,0-2.7,0-5.4.2-8.1.2-2.1.2-4.3.2-6.4,0-1,0-2.1,0-3.1,0-3.1,0-6.1.2-9.2.2-2.5,0-5.1.4-7.6.2-1.3,0-2.4-.9-3.4-.9-1-.7-2.3-.4-3.4.2-.6.6-1,1.1-1.3,1.5-.9,3-1.9,4.6-2.8,1.4-.8,2.7-1.5,4.1-2.3,3.5-2.1,7-4.2,10.6-6.2,2.2-1.3,4.2-2.8,6.4-4.2,1-.6,2-1,3.2-1,.2,0,.3,0,.5,0,1.2,0,1.5-.4,1.6-1.6,0-.7.3-1.1.9-1.4,1-.5,1.8-1.3,2.8-1.3.8.4,1.5.7,2.2,1,1.1.3,2.1.3,3.2,0,3.3-1.1,6.7-2.1,10-3.3,2.1-.7,4.1-1.5,6.2-2.2,1.1-.4,2.3-.7,3.5-1.1,4.1-1.3,8.1-2.6,12.1-4,2.5-.8,4.9-1.7,7.3-2.5,2-.7,4.1-1.3,6.1-1.9.8-.3,1.6-.6,2.4-.8,2.7-.9,5.4-1.8,8-2.6,1.7-.6,3.5-1.2,5.2-1.8.5-.2.9-.5,1.2-.7.3-1-.2-1.9.4-2.8.5-.2,1-.4,1.5-.6.6-.2,1.2-.4,1.8-.6.8-.3,1.7-.4,2.5,0,.5.3,1.1.4,1.6.6,1,.4,1.8,1,1.7,2.3,0,.8.4,1.3,1.1,1.6,1.8.9,3.5,1.8,5.3,2.6,2.8,1.4,5.6,2.7,8.4,4.1.5.3,1,.5,1.8.1.1-1.6.7-3.1.3-4.8-.5-1.8-.3-3.6,0-5.3.2-1.4.8-2.8,1.9-3.8.7-.7,1-1.4.9-2.3,0-1.9,0-3.8,0-5.7,0-1.4,0-2.8.7-4,.4-.8,1-1.4,1.6-2,.6-.6,1.3-1.2,1.8-1.9.7-.8,1.1-1.6.4-2.7-.4-.6-.4-1.3,0-1.8.4-.9.5-1.8.4-2.7,0-.1,0-.2,0-.3,0-.3.2-.5.5-.6.3,0,.6.3.6.7,0,.3,0,.6,0,.9,0,.8,0,1.6.5,2.3.3.5.3,1,0,1.5-.3.5-.5,1-.4,1.6,0,.5.1.9.5,1.3.6.6,1.1,1.2,1.6,1.8.3.4.7.8,1,1.2.7,1,1.2,2,1.1,3.2,0,1.1-.1,2.2-.3,3.3-.3,2-.2,4,.3,6,.1.5.5.9.8,1.3.5.7,1,1.2,1.4,2,1.1,2,1.3,4.3,1.2,6.6,0,.7-.3,1.4-.7,2-.5.8-.5,1.6-.3,2.5.3,1.3.7,2.7,1.1,4,.3,1,.7,1.8,1.7,2.3,1,.5,1.7,1.6,2.3,2.5.5.8,1,1.5,1.5,2.3.4.5.8.9,1.4,1.2,2.4,1.1,4.7,2.2,7,3.3,2,.9,4,1.7,6,2.6.5.2,1,.5,1.5.9,3.9,3,8.1,5.7,12.2,8.5,2.1,1.4,4.1,2.8,6.1,4.2,1.6,1.1,3.1,2.1,4.7,3.2,1,.6,1.8,1.4,2.8,2,1,.5,1.1,1.4.6,2.4-.2.4-.4.9-.7,1.2-.8.8-1.1,1.8-1.2,2.8,0,.7-.1,1.4-.1,2.1,0,1.9,0,3.7-.2,5.5-.2,1.9-.2,3.8-.3,5.7,0,2-.1,4-.2,6.1-.1,3.2-.3,6.4-.4,9.5,0,.3,0,.6,0,.9,0,4.5,0,9,0,13.5,0,.5,0,.9,0,1.4.8.6,1.8.8,2.8.8.8,0,1.5,0,2.2.4.2.1.4.1.7.2,2.7.2,5.2,1,7.8,1.7,1.9.5,3.6,1.1,5.3,2,.2,0,.3.3.7.7-.8-.2-1.3-.2-1.7-.4-2.2-1-4.5-1.7-6.9-2.3-1.9-.5-3.8-1-5.7-1.2-2.3-.2-4.4-.9-6.7-1.1-.5,0-1-.3-1.4-.6-1.1-.8-2.4-1.2-3.6-1.6-.7-.2-1.5-.2-2.2-.2-1,0-2.1,0-3.1-.4-.9-.2-1.8-.3-2.7-.3-2.1-.2-4.2,0-6.2.1-.9,0-1.2.3-1.2.7,0,.6.6.6,1,.8.5.2,1.1.4,1.6.5.8.2,1.7.3,2.5.5,0,.5-.2.5-.4.5-1.9.2-3.7-.4-5.4-1.1-1.8-.7-3.6-1.4-5.4-1.8-2.4-.5-4.6-1.5-6.8-2.6-2.9-1.4-5.7-2.7-8.7-3.7-.9-.3-1.7-.6-2.6-.9-3.8-1.2-7.7-1.2-11.7-.7-2.5.3-4.9.5-7.4.7-.5,0-.9,0-1.4.1-1.6.4-3.2.4-4.8.4-4,0-8,.4-11.9,1.1-.5,0-.9.2-1.4.2-1.9,0-3.8-.2-5.7-.3-2,0-3.9-.2-5.9,0-1.3.2-2.7.2-4,.3-1,0-2.1.2-3.1.4-.2,0-.5.1-.7.1-1.6,0-3.2.4-4.8.8-1.1.3-2.2.3-3.3.4-2.9.3-5.8.4-8.6.9-1.6.3-3.2.3-4.8.4-.3,0-.6,0-.9,0-2.5.7-5,1.3-7.2,2.8-1.3.8-2.6,1.5-3.9,2.2-.6.3-1.2.7-1.8,1-.2,0-.4.2-.6.3ZM476.7,115.9c-.5-.2-1.1-.4-1.6-.7-.3.5,0,.7.3.9.5.2,1,.1,1.4-.3,0,.4-.2.9-.3,1.3.3.3.6.5.8.8.2.2.7.1.7.6-.5.4-.9.9-1.5,1.2-.5.3-1.2.3-1.8.4.1,0,.2.2.3.2,1.2.2,2.2,0,3.2-1,.9-.8,1-.8.2-1.7-.5-.6-1.1-1.2-1.6-1.8ZM470.2,89.8c.4,0,.6-.1.9-.2.2,0,.4-.1.7-.2.4-.1.8-.3,1.2-.3.8-.1,1.2.2,1.2,1,0,.5,0,1,0,1.6,0,1.8,0,2.1,1.8,2.6.8.2,1.4.7,1.6,1.4.4,1,.8,1.9.7,3,0,.6,0,1.3,0,1.9,0,1.8,0,3.7.2,5.5.2,1.3.4,2.6.4,4,0,.4,0,.8,0,1.2.1,1,.4,1.2,1.4,1.1,2.5-.3,4.9-.7,7.4-.8,2.7-.2,5.4-.3,8.1-.7,1.6-.3,3.3-.3,5-.5,4.1-.4,8.3-.7,12.4-1.2,2.7-.4,5.4-.5,8.1-.7,2.6-.2,5.3-.4,7.9-.6.3,0,.7,0,1-.1,1.1-.1,2.3-.3,3.4-.4.4,0,.8,0,1.2,0,1.5-.2,1.9-.6,1.9-2.1,0-2.4.1-4.9.2-7.3.1-4.8,0-9.6.2-14.4.3-4.1.2-8.3.2-12.5,0-6.6,0-13.2,0-19.8,0-1.4,0-2.8.1-4.2,0-.8,0-1.6,0-2.4,0-.4-.1-.8-.6-.9-1,.2-2,.3-2.9.5-2.6.7-5.2,1.5-7.8,2.2-2.7.7-5.3,1.5-8,2.2-1.8.5-3.6,1-5.3,1.4-2.3.6-4.7,1.2-7,1.9-2.6.7-5.1,1.5-7.6,2.2-1.7.5-3.4.9-5,1.3-1.4.4-2.8.8-4.1,1.2-1.4.4-2.9.8-4.3,1.2-2.5.7-5,1.5-7.5,2.2-2.6.7-5.1,1.4-7.7,2.1-2.6.7-5.2,1.4-7.8,2.1-2.3.6-4.7,1.3-7,2-1.7.5-3.4,1-5.1,1.5-2.4.7-4.9,1.3-7.3,2-2.4.7-4.8,1.5-7.3,2.1-2.5.6-4.8,1.5-7.3,2.1-.5.1-1,.3-1.4.6-.5.2-.7.8-.5,1.3,0,.2.2.4.4.6.5.6.7,1.3.7,2.1,0,2.1,0,4.2-.2,6.2,0,2.2-.2,4.4-.3,6.6-.1,3.4-.2,6.8-.3,10.2,0,.2,0,.3,0,.5-.4,3.3-.2,6.6-.3,9.9,0,.9,0,1.8,0,2.8,0,.9-.1,1.8.1,2.7.5.5,1.1.5,1.7.4,1.3-.1,2.5-.2,3.8-.3.8,0,1.6-.2,2.4-.3.9-.1,1.8-.2,2.8-.3,2.7-.3,5.4-.5,8.1-.8,2.4-.3,4.7-.5,7.1-.5.8,0,1.6,0,2.5.1.5-1.2,1.5-1.2,2.6-1.1,1.6,0,3.2,0,4.9-.1,1.4,0,2.9-.2,4.3-.4.3,0,.7-.1,1-.2,0-.3.2-.4.2-.6,0-2-.1-3.9-.2-5.9-.1-2.1-.4-4.3-.5-6.4,0-.7,0-1.4.2-2,.6-1.4,1.3-2.8,2.6-3.8.8-.6,1.1-1.3,1-2.2,0-.6-.1-1.2-.1-1.7,0-.4,0-.8.1-1.3ZM614.1,76.4c-.4-.5-.9-.8-1.5-.8-.8-.1-1.5-.6-2.2-.9-.5-.2-1-.5-1.5-.8-2.9-1.3-5.7-2.6-8.6-4-3-1.4-6-3-9-4.4-5-2.3-10-4.5-14.9-6.8-5.1-2.3-10.1-4.7-15.2-7-3.1-1.4-6.3-2.9-9.4-4.3-3.1-1.4-6.2-2.8-9.3-4.3-.4-.2-.8-.4-1.4-.1-.3,1.1-.6,2.3-.6,3.5,0,1.8,0,3.7,0,5.5,0,5.1,0,10.3-.2,15.4,0,1.9.2,3.8-.3,5.7,0,.3,0,.7,0,1,0,4-.1,8.1-.1,12.1,0,6.1,0,12.3,0,18.4,0,.3,0,.7,0,1,0,.5.4.9.9,1,1.1.2,2.3.4,3.4.7.7.1,1.4.2,2,.4.5,0,1,.2,1.5.3,1.8.3,3.7.6,5.5.9,1.5.3,3.1.3,4.6.8.3.1.7,0,1,0,.4,0,.8,0,1.2.1,2.1.3,4.2.7,6.3,1.1.2,0,.4,0,.5.1.9.4,1.9.4,2.9.5.5,0,1,.1,1.5.2,1.5.3,3.1.5,4.6.8,1.1.2,2.3.5,3.4.6,1.9.1,3.6.6,5.4.9,2.8.5,5.7.8,8.5,1.5,1.7.4,3.5.6,5.3.8,1.1.2,2.3.3,3.4.5,1.8.3,3.6.7,5.4,1,.9.2,1.7.3,2.6.4.4,0,.8,0,1.2,0,.1-.5.2-.8.3-1.2.1-1.1.2-2.2.3-3.3,0-.8.1-1.6.1-2.4,0-4.2,0-8.4.4-12.6.2-2.9.2-5.8.2-8.7,0-3.2,0-6.5,0-9.7,0-1,.2-1.8.9-2.6.4-.4.8-.8.8-1.5ZM485.7,120.9c.8.3,1.6,0,2.4-.1.7-.1,1.4-.3,2-.3,2.1,0,4.3-.3,6.4-.5,2.1-.2,4.3,0,6.4-.6.2,0,.5,0,.7,0,.9-.1,1.8-.3,2.7-.5,1.1-.2,2.1-.6,3.2-.7,1.5-.1,3-.2,4.5-.5.5-.1,1-.1,1.6-.1,1.6,0,3.2,0,4.9,0,2.9,0,5.9,0,8.8,0,1.1,0,2.2-.2,3.3-.3.8,0,1.6-.2,2.4-.3.6,0,1.3,0,1.8-.2.4-.6.2-1.1.2-1.6-.1-1.7-.6-3.4,0-5.1-.9-.8-.9-.8-1.6-.7-2.6.5-5.3.4-7.9.8-1.7.2-3.5.2-5.2.4-1,0-2.1.3-3.1.3-1.6,0-3.2,0-4.8.5-.4.1-.9,0-1.4.1-.7,0-1.4,0-2.1.1-3.2.3-6.3.6-9.5.9-3.3.3-6.6.6-9.8.9-3.7.3-7.4.7-11,1.1-.5,0-.9,0-1.4.1-.6,0-1.2.2-1.9.7.4.4.7.8,1,1,1.1.9,2.3,1.4,3.8.9.8-.2,1.6-.2,2.2-.3.9.4,1.2.9,1.2,1.7,0,.7-.1,1.5.2,2.2ZM539.6,116.1c.2,0,.5.2.8.2,2.8,0,5.7,0,8.5-.2,1.3-.1,2.5-.3,3.8-.4.6,0,1.2,0,1.7-.2,1.7-.4,3.4-.5,5.2-.5,2.9,0,5.8-.2,8.6.8.4.1.7.3,1.1.4,1.1.4,2.1.9,3.2,1.2,1.2.3,2.4.8,3.6,1.3,3.4,1.5,6.5,3.4,10.2,4.1.2,0,.4.2.6.3,1,.2,2,.5,3,.5,1.3,0,2.5-.3,3.8-.5,2.2-.4,4.5-.3,6.7,0,1.7.2,3.4.4,5.2.6,1.3,0,2.5.2,3.8.6.6.2,1.1.3,1.7,0,.3-.7.2-1.4.2-2.2,0-.9-.2-1-1.1-1.3-1.3-.3-2.6-.5-3.9-.8-2.7-.6-5.5-.8-8.2-1.5-1.6-.4-3.2-.6-4.8-.8-1.1-.2-2.2-.2-3.2-.5-1.7-.5-3.5-.6-5.3-1-2.7-.5-5.3-.9-8-1.4-2.7-.5-5.4-1-8.2-1.6-1.1-.2-2.3-.4-3.4-.6-1.7-.3-3.4-.6-5.1-.8-1-.2-2.1-.2-3.1-.5-1.8-.6-3.7-.3-5.4-1.1-3.2-.4-6.3-.9-9.4-1.7-.3,0-.6,0-.9-.1-1-.2-1.9,0-2.6,1.1.8.8.9,1.7.7,2.7,0,.6-.1,1.3-.2,1.9,0,.6-.2,1.3.2,1.9ZM453.6,116.9c-.6,0-1.1-.1-1.4,0-1,.5-2,.4-3.1.5-1.3,0-2.5.2-3.8.3-.6,0-1.3,0-1.9.1-2.5.2-4.9.5-7.4.8-.1,0-.2,0-.3,0-.9.4-1.9.3-2.9.4-1.8.2-3.7.4-5.5.6-1.2.1-1.6.7-1.4,1.9.2.9.3,1.7.1,2.6-.1.6.2,1,.9,1,.6,0,1.3,0,1.9,0,1.8-.2,3.4.7,5.1.7.3,0,.6.3.9.4.3.2.6.3,1,.5,1.2-1,2.4-1.9,3.7-2.9,1.3-1,2.6-1.9,3.8-2.9.5.4.5.9.4,1.4-.1.6-.3,1.1,0,1.7.3,0,.6.2,1,.2,1,0,2.1,0,3.1.1,1,.1,1.7-.2,2.2-1,1.1-1.9,2.4-3.8,3.4-5.8,0-.2.1-.4.2-.9ZM557,40.4c.3.1.3.2.4.2,1.8.3,3.4-.4,5.1-.8.2,0,.3-.3.4-.5-.1-.5-.3-.9-.3-1.4-.3-1.8-.7-3.5-.2-5.3-.2-.9.2-1.8.4-2.7.1-.5.1-1.2,0-1.7-.2-1.6-.5-3.3-.8-4.9-.7-.3-1.4-.3-2.1-.2-1.3,0-2.4.4-2.7,1.8,0,.2-.1.3-.2.5-.5.7-.6,1.6-.6,2.5,0,.6,0,1.3,0,1.9.2.8,0,1.6-.3,2.4.6.4.9.9.8,1.6,0,1.7,0,3.4,0,5,0,.6,0,1.1,0,1.7ZM477.4,111.9c.8-.8.6-1.6.6-2.4-.2-3.6-.4-7.3-.6-10.9,0-.2,0-.5,0-.7-.3-1.2-.8-2.3-2.2-2.6-.5-.1-1.1-.4-1.7-.6-.1-1.3-.3-2.5-.4-3.7-.5-.6-1.1-.6-1.6-.3-.6.4-.6.9-.4,1.5,0,.3.1.6.1.9,0,.7,0,1.4,0,2-.1.1-.2.2-.3.3-2.5,1-3.3,3.1-3.7,5.5-.2,1.6-.1,3.2,0,4.8.3,2.1.5,4.2.6,6.4,0,.6.2,1.2.7,1.8.7-.5.9-1,.8-1.8,0-.7-.2-1.5-.3-2.2-.3-2.4,0-4.9-.5-7.3-.1-.6,0-1.2,0-1.7,0-.6.2-1.2.5-1.6.7-1.3,1.8-2.1,3-2.8.2-.1.4-.1.7-.2,1.4-.1,2.5.5,3.2,1.6.5.8.6,1.6.6,2.5,0,1.4,0,2.9.3,4.3.2,1.3.3,2.6.3,4,0,.8,0,1.6,0,2.4,0,.3.1.5.2.8ZM560.7,9.7c-.3.2-.6.3-.8.6-.4.7-.7,1.5-.8,2.3-.1,1.1-.2,2.2-.4,3.2-.2,1.1,0,2.3,0,3.4,0,.2,0,.3,0,.5q0,1.3-.6,2.6c1.2,0,2.3-.2,3.4-.8,0-1,0-1.9,0-2.8,0-1.1,0-2.2.7-3.2-.6-.8-.7-1.7-.6-2.7,0-1.1-.1-2.2-.9-3.2ZM472.1,118.3c.7.3,1.4.3,2.2-.1-.9,0-1.6-.4-2.2.1ZM445.9,127.1c-.5-.4-.9-.5-1.3,0,0,0,0,.4,0,.4.5.4.8,0,1.2-.4ZM444,128.4c-.3-.1-.5-.2-.6-.2,0,0-.2.1-.3.2,0,0,.2.2.3.2.2,0,.3,0,.6-.2Z"></path>
    <path class="cls-2" d="M753.8,151.9c-.2,0-.2,0-.3,0,0,0-.1,0-.1.1,0,0-.1.2-.1.3-3,22.5-6.5,45-10,67.4,0,0,0,0-.2.2-.7.2-1.6.1-2.5,0-.1-.5-.3-1-.4-1.5-.7-4.8-1.4-9.6-2.2-14.4-.7-4.9-1.5-9.7-2.2-14.6-.7-4.3-1.3-8.6-1.9-12.9-.9-5.9-1.8-11.9-2.7-17.8-.3-2.2-.6-4.5-.9-6.7,0,0-.1-.2-.2-.3-.4,0-.3.3-.3.5,0,1.2,0,2.3,0,3.5,0,20.7,0,41.3,0,62,0,.7,0,1.4-.1,2.1-.7.3-1.5.1-2.2.2-.7,0-1.5,0-2.3,0-.1-.4-.2-.7-.3-1.1,0-.5,0-.9,0-1.4,0-24.5,0-48.9,0-73.4,0-.7-.1-1.5.2-2.3,1-.2,2.1,0,3.1-.1,1,0,2,0,2.9,0,1,0,2.1,0,3,0,.1.2.2.2.2.2,0,.2.1.3.1.5,2.4,18.6,4.7,37.2,7.1,55.7,0,0,0,.1,0,.2,0,0,0,.1,0,.1,0,0,0,0,.1,0,0,0,.1,0,.2,0,.8-6.3,1.6-12.6,2.5-18.9.8-6.4,1.7-12.7,2.5-19.1.8-6.3,1.6-12.6,2.5-18.8,1.5-.3,7.6-.3,9.1,0,0,.3.1.6.1,1,.2,5.7,0,75.4-.2,76.9-.7.4-1.6.2-2.4.2-.7,0-1.5,0-2.3,0,0-.4-.2-.7-.2-1.1,0-.6,0-1.2,0-1.7,0-19.3,0-38.5,0-57.8,0-2.1,0-4.2,0-6.2,0-.4,0-.9,0-1.3Z"></path>
    <path class="cls-2" d="M139.7,220.1c-1.7,0-3.2.2-4.9,0,0-.4-.1-.7-.1-1.1,0-.3,0-.7,0-1,0-24.6,0-49.2,0-73.8,0-.7,0-1.4,0-2,1.3-.3,4.5-.4,7.1-.2.1.3.3.7.4,1.1,2,9.3,3.9,18.7,5.9,28,1.4,6.5,2.7,13,4,19.5.1.6.2,1.3.3,1.9,0,.3,0,.6.5.7.2-1.7,0-3.4,0-5.1,0-1.7,0-3.4,0-5,0-1.7,0-3.5,0-5.2v-25.5c0-1.7,0-3.5,0-5.2,0-1.7-.1-3.3.1-5,1.6-.4,3.2,0,4.8-.2,0,.5.2.8.2,1.1,0,.4,0,.8,0,1.2,0,24.5,0,49.1,0,73.6,0,.7.1,1.5-.3,2.3-.9.1-1.8.1-2.8,0-1.3-5.4-2.5-10.7-3.7-16-1.3-5.4-2.5-10.8-3.8-16.2-1.2-5.3-2.5-10.7-3.7-16.1-1.2-5.3-2.5-10.6-3.7-16-.4,1.6-.2,3.2-.2,4.8,0,1.7,0,3.4,0,5,0,1.6,0,3.2,0,4.9v39.6c0,1.7,0,3.4,0,5,0,1.6.1,3.2-.1,5Z"></path>
    <path class="cls-2" d="M776.3,141.8c.7,0,1.3,0,1.8,0,3.7,0,7.4,0,11.1,0,.9,0,1.8.1,2.7.3,2.4.4,3.9,1.9,4.7,4.1.8,2.2,1.4,4.5,1.6,6.9.4,4.1.4,8.2.3,12.3,0,2.4-.2,4.9-.4,7.3,0,.8-.2,1.6-.4,2.4-.4,1.6-1.1,3-2.6,4-.2.1-.3.3-.5.6.4.3.7.5,1,.8,1.3.9,2.3,2.2,2.6,3.7.2,1.1.5,2.2.5,3.2.2,2.2.3,4.5.3,6.8,0,4.6.1,9.2-.2,13.9-.2,2.7-.8,5.3-1.8,7.7-.9,2.3-2.6,3.8-5.1,4.2-.7,0-1.4.2-2.1.2-4.2,0-8.4,0-12.7,0-.3,0-.7,0-1.1,0,0-.4-.1-.7-.2-1,0-.3,0-.7,0-1,0-24.6,0-49.3,0-73.9,0-.7-.1-1.4.3-2.2ZM781.7,214.7c2.7,0,5.3,0,7.8,0,1.5,0,2.6-.8,3.1-2.3.6-1.5.8-3.1.9-4.7.4-6.5.3-13.1,0-19.6,0-1.1-.4-2.3-.7-3.4-.4-1.4-1.4-2.2-2.9-2.4-.5,0-.9-.1-1.4-.1-2,0-3.9,0-5.9,0-.3,0-.6.1-.9.2-.3,1.7-.4,22.4-.2,30.9,0,.4,0,.8.1,1.4ZM781.5,147.4v2.2c0,8.1,0,16.2,0,24.3,0,.9,0,1.7,0,2.6,0,.3,0,.6.1,1,.3,0,.4.1.6.1,2.1,0,4.3,0,6.4,0,.3,0,.6,0,.9,0,1.4-.2,2.3-1,2.8-2.3.5-1.4.7-2.8.7-4.2,0-5.4,0-10.7,0-16.1,0-1.7-.3-3.4-.9-5.1-.6-1.7-1.8-2.5-3.5-2.5-2.1,0-4.2,0-6.2,0-.2,0-.4,0-.9.1Z"></path>
    <path class="cls-2" d="M175.3,220c0-.4-.1-.6-.1-.9-.2-4,0-75.7.1-77.1.3,0,.6-.2,1-.2,3.9,0,7.9,0,11.8,0,.7,0,1.5.2,2.2.3,3,.5,4.9,2.4,6,5.2,1,2.6,1.6,5.2,1.7,7.9.2,3.7.4,7.4.4,11.1.1,7.7.2,15.4.1,23.1,0,4.5-.1,8.9-.3,13.4-.2,3.9-.5,7.7-1.7,11.5-.2.5-.3,1-.5,1.5-.9,1.9-2.3,3.3-4.4,3.9-1.2.3-2.4.6-3.6.6-3.9,0-7.9,0-11.8,0-.3,0-.7,0-1.1,0ZM180.8,214.3c.5,0,1,0,1.4,0,1.6,0,3.2,0,4.9,0,2.8,0,4.1-1.1,4.8-3.8,0-.1,0-.2,0-.3.8-3.4,1-6.9,1-10.3,0-11.2,0-22.4,0-33.7,0-3.5,0-7.1-.4-10.6-.2-1.9-.5-3.8-1.3-5.5-.8-1.8-2.2-2.8-4.2-2.8-1.7,0-3.5,0-5.2,0-.4,0-.8.1-1.1.2-.2,1.5-.2,65,0,66.7Z"></path>
    <path class="cls-2" d="M815.4,142c.6,0,1-.1,1.4-.1,3.9,0,7.7,0,11.6,0,3.3,0,5.8,1.4,7.4,4.4.6,1.2,1.1,2.4,1.4,3.7.7,3.1.8,6.3.9,9.5.2,4.6,0,9.1-.3,13.7-.1,2-.5,4-1.1,6-.5,1.6-1.3,2.9-2.9,3.7-.2.1-.4.3-.6.4,0,.2.1.4.2.5,1.2.8,1.8,1.9,2.2,3.2.6,1.8,1,3.6,1.1,5.4.2,2.7.4,5.4.6,8.1.2,3.2.3,6.4.5,9.5.2,3.2.2,6.4,1,9.5,0,.2,0,.3,0,.6-.2,0-.4.1-.7.1-1.5,0-3,0-4.6,0-.2-.4-.4-.8-.4-1.1-.2-1.7-.5-3.3-.6-5-.2-1.7-.3-3.3-.4-5-.2-4-.3-8.1-.5-12.1-.1-2.1-.4-4.3-.6-6.4,0-.6-.3-1.2-.5-1.8-.6-1.8-1.9-2.8-3.9-3-1,0-2,0-2.9,0-.9,0-1.7-.1-2.7.2,0,.3-.2.6-.2,1,0,.5,0,1,0,1.6,0,9.8,0,19.7,0,29.5s0,1.4,0,2.1c-.9.5-1.8.3-2.7.3-.9,0-1.7,0-2.7,0,0-.4-.1-.7-.2-1,0-.5,0-.9,0-1.4,0-24.4,0-48.8,0-73.2s0-1.5,0-2.4ZM821,147.3c0,.7-.1,1.2-.1,1.7,0,10,0,19.9,0,29.9,0,.2,0,.4,0,.5,0,.3.1.6.2.9,1.6.3,5.7.3,7.2,0,1.1-.2,1.9-.8,2.5-1.7.4-.6.7-1.3.9-2,.3-1.3.6-2.7.7-4.1.1-4.6.2-9.1.2-13.7,0-1.6,0-3.2-.2-4.9,0-1.6-.5-3.1-1.2-4.5-.7-1.3-1.7-2.1-3.2-2.1-2.2,0-4.5,0-7,0Z"></path>
    <path class="cls-2" d="M328.8,141.9c.5,0,.9,0,1.4,0,3.7,0,7.4,0,11.1,0,1,0,2.1.2,3.1.4,2.6.6,4.2,2.3,5.2,4.7.8,1.9,1.3,3.9,1.6,6,.5,3.2.6,6.4.6,9.7,0,9,.1,18,.1,27.1,0,3.4,0,6.8-.1,10.2-.1,3.7-.3,7.4-1,11-.3,1.3-.6,2.6-1,3.9-.8,2.5-2.5,4.3-5.2,4.9-1.1.2-2.2.4-3.3.5-3.8,0-7.6,0-11.5,0-.4,0-.8,0-1.2,0,0-.3-.2-.6-.2-.9,0-.5,0-1,0-1.6,0-24.4,0-48.8,0-73.2,0-.8-.2-1.6.3-2.4ZM334.2,147.5c-.4.8-.2,1.7-.2,2.5,0,20.6,0,41.2,0,61.8,0,.5,0,.9,0,1.4,0,.4.1.8.2,1.2.5,0,1,0,1.4,0,1.6,0,3.1,0,4.7,0,3.1,0,4.4-1.4,4.9-4,0,0,0-.1,0-.2.4-2.1.8-4.2.8-6.4,0-4,.3-8.1.3-12.1,0-10.1,0-20.1,0-30.2,0-2.6-.1-5.2-.6-7.8-.3-1.4-.6-2.8-1.3-4.1-.7-1.3-1.8-2-3.3-2.2-.2,0-.5,0-.7,0-1.8,0-3.6,0-5.4,0-.3,0-.5,0-.8.1Z"></path>
    <path class="cls-2" d="M276.3,181.9c0,5.2,0,11.2-.2,17.3,0,3.4-.2,6.8-.7,10.2-.3,2.1-.7,4.2-1.4,6.3-.2.8-.6,1.5-1,2.2-.9,1.5-2.2,2.5-3.9,3-2.7.8-5.4.8-8.1.2-2.9-.7-4.7-2.6-5.6-5.4-.7-2.3-1.2-4.6-1.5-6.9-.6-5-.7-10-.7-15.1,0-10.3,0-20.6,0-30.9,0-4,.2-8.1,1-12.1.3-1.6.7-3.2,1.2-4.7.3-.9.9-1.8,1.4-2.6.7-1.1,1.8-1.8,3-2.2,1.3-.4,2.5-.8,3.9-.7,1.4,0,2.8,0,4.1.3,3.2.6,5.1,2.6,6,5.6,1,3.3,1.5,6.6,1.8,10.1.5,8.2.4,16.4.5,25.6ZM258.7,181.1c0,6.7,0,13.4.2,20.1,0,3.6.2,7.2,1.3,10.6.2.6.3,1.1.6,1.6.5,1,1.3,1.7,2.5,2,.5,0,.9.2,1.4.2,2.6,0,4.2-.9,4.8-3.7.2-1.1.5-2.3.6-3.4.5-3.4.6-6.8.6-10.2,0-11.8,0-23.7,0-35.5,0-4.1-.2-8.2-1.1-12.2-.2-.8-.4-1.6-.7-2.3-.5-1.1-1.4-1.8-2.6-2.2-3-.9-5.5.5-6.2,3.5-.3,1.2-.6,2.5-.7,3.7-.3,3.2-.5,6.5-.6,9.7-.1,6-.1,12-.2,18Z"></path>
    <path class="cls-2" d="M917.1,142c1.9-.2,3.5-.1,5.3,0,0,.3.2.7.3,1,0,.6,0,1.2,0,1.7,0,10.2,0,20.4,0,30.6,0,.7,0,1.5.2,2.3.3,0,.6.1.8.1,2.9.1,10,0,11.4-.1,0-.3.2-.6.2-.9,0-.6,0-1.2,0-1.7,0-10.2,0-20.5,0-30.7,0-.7,0-1.4.2-2.1,1.7-.1,3.4,0,5.2,0,0,.5.1.8.1,1.2.2,8.6,0,75.2-.1,76.9-1.2.3-3.3.4-5.2,0,0-.3-.1-.6-.1-.9,0-.5,0-1,0-1.6,0-10.8,0-21.5,0-32.3,0-.7.1-1.4-.2-2.1-.2,0-.4-.1-.7-.1-3.7,0-7.4,0-11.1,0-.2,0-.3,0-.5.2-.3.7-.2,1.5-.2,2.2,0,10.8,0,21.5,0,32.3,0,.7,0,1.5-.1,2.2-1.2.3-3.4.4-5.3,0,0-.3-.1-.6-.2-.9,0-.4,0-.8,0-1.2,0-24.5,0-49.1,0-73.6s0-1.4,0-2.2Z"></path>
    <path class="cls-2" d="M232,183.5c-2.6-.2-5.1,0-7.7-.1-.2-.9-.1-1.7-.1-2.5,0-.8,0-1.6,0-2.5.3-.1.6-.2.9-.3,3.8,0,7.6,0,11.4,0,.2,0,.3,0,.6.1,0,.4.2.7.2,1.1,0,1.5.2,3,.2,4.5,0,6.8,0,13.7-.3,20.5-.2,3.6-.7,7.1-1.7,10.6-.2.7-.4,1.3-.7,2-1,2.1-2.5,3.6-4.8,4.1-2.6.6-5.2.6-7.7,0-2.9-.7-4.7-2.5-5.5-5.2-.6-1.8-1-3.7-1.3-5.6-.4-2.7-.6-5.5-.7-8.3-.5-11.9-.4-23.8-.2-35.7,0-4.2.4-8.4.6-12.6.1-2.3.5-4.6,1.4-6.8.4-1,.8-1.9,1.3-2.8,1.1-1.8,2.7-2.9,4.9-3.3,2.1-.3,4.2-.4,6.4,0,3.2.6,5.2,2.5,6.2,5.6.7,2.2,1.2,4.5,1.5,6.8.4,3.9.5,7.8.4,11.8,0,.2,0,.3,0,.5-1,.4-2.6.5-5,.2,0-.2-.1-.5-.1-.8,0-3.6,0-7.3-.5-10.9-.2-1.3-.4-2.6-.7-3.9-.1-.6-.4-1.2-.7-1.8-.6-1.3-1.6-1.9-3-2.1-.9-.1-1.7-.1-2.6.1-1,.3-1.8.8-2.3,1.7-.4.7-.7,1.4-1,2.2-.6,2.2-1,4.5-1.1,6.8-.1,4.3-.3,8.7-.3,13,0,8.7,0,17.5,0,26.2,0,2.9.2,5.9.3,8.8.1,2.4.6,4.8,1.1,7.2,0,.2.1.4.2.7.7,2,1.9,2.9,4,3,.1,0,.2,0,.3,0,2.8,0,4.2-1,4.8-3.7.7-3,1.2-6,1.3-9.1.2-5.7.3-11.3.3-17,0-.8.1-1.6-.4-2.5Z"></path>
    <path class="cls-2" d="M391.9,142c1.9-.2,3.5-.1,5.3,0,0,.3.2.7.2,1,0,.4,0,.8,0,1.2,0,9.7,0,19.4,0,29.2,0,.7,0,1.4,0,2.1,0,.2,0,.5.2.6,0,0,.1,0,.2,0,0,0,.1,0,.1-.1,0,0,.1-.2.2-.3,4.1-10.8,8.2-21.6,12.3-32.4,0-.2.2-.4.3-.6,0,0,0-.1,0-.2,0,0,0,0,0-.1,0,0,0,0,.3-.3,1.6,0,3.4,0,5.1,0,.5.6.2,1,0,1.4-1.4,3.5-2.7,7-4.1,10.5-2.8,7.3-5.7,14.6-8.5,21.8-.1.4-.3.8-.4,1.1-.3.6-.2,1.1,0,1.7.9,2.6,1.8,5.3,2.6,7.9,3.6,10.7,7.2,21.4,10.8,32.1.2.5.3,1,.4,1.5-1,.4-3,.5-5.8.2-.2-.4-.4-.8-.5-1.2-4.1-12.3-8.1-24.6-12.2-36.9-.2-.5-.3-1.1-.5-1.7,0-.2-.2-.3-.3-.5-.5,0-.4.4-.4.6,0,12.4,0,24.9,0,37.3,0,.7.1,1.5-.2,2.2-1.2.3-3.4.4-5.2,0,0-.3-.1-.6-.1-.9,0-.5,0-.9,0-1.4,0-24.4,0-48.8,0-73.3s0-1.5,0-2.4Z"></path>
    <path class="cls-2" d="M118.8,220c-1.8.3-3.6,0-5.5.1-.4-2.7-.5-5.2-.7-7.7-.2-2.5-.4-5-.6-7.4-.2-2.5-.4-5.1-.7-7.6-1.5-.4-3-.2-4.4-.2-1.4,0-2.8-.1-4.2.1-.4.8-.4,1.7-.5,2.5-.4,4.7-.8,9.5-1.2,14.2-.1,1.5-.2,3-.4,4.5,0,.5-.2,1-.3,1.5-1.4.3-3.6.3-5.4,0,0-.4,0-.9,0-1.3.5-5.4,1.1-10.7,1.6-16.1.4-4.3.8-8.5,1.2-12.8.4-4.2.8-8.4,1.2-12.6.3-3,.5-6,.8-9,.3-3.1.6-6.1.9-9.2.3-2.9.5-5.9.8-8.8.2-2.6.5-5.2.7-7.8,0-.2.1-.3.2-.6,1-.2,2,0,3.1,0,1,0,2,0,3,0h3.2c.4.9.4,1.8.4,2.6.4,4.6.8,9.1,1.2,13.7.4,4.5.8,9,1.2,13.5.3,3.2.5,6.5.8,9.7.4,4.6.8,9.1,1.2,13.6.3,3.1.5,6.1.8,9.2.3,3.5.6,6.9.9,10.4.1,1.5.3,3,.4,4.5,0,.3,0,.7,0,1.1ZM107.2,146.6c-1.3,14.6-2.9,29.2-4.2,43.8,0,.3,0,.6,0,.9,0,.1,0,.2.1.3,1.3.3,6.3.3,7.8,0,.2-.6,0-1.3,0-2-.3-3.2-.6-6.4-.9-9.7-.4-4.6-.8-9.2-1.2-13.8-.5-6.1-1-12.2-1.5-18.3,0-.4,0-.8-.1-1.1Z"></path>
    <path class="cls-2" d="M438.5,142.1c1.4-.3,7.3-.3,9.4,0,0,.3.2.6.2.9.3,3.5.6,6.9,1,10.4.3,3.6.6,7.1,1,10.7.3,3.2.5,6.3.8,9.5.3,3.3.6,6.7.9,10,.3,3,.5,6,.8,9,.3,3.6.6,7.1,1,10.7.3,2.9.5,5.9.8,8.8.2,2.2.4,4.5.6,6.7,0,.4,0,.8,0,1.3-1.9.2-3.6.2-5.5,0-.4-2.6-.5-5.1-.7-7.6-.2-2.5-.4-5-.6-7.4-.2-2.5-.4-5.1-.7-7.6-1.5-.4-2.9-.2-4.4-.2-1.4,0-2.8,0-4.1,0-.5.8-.4,1.5-.5,2.3-.5,6.1-1,12.2-1.5,18.3,0,.7-.2,1.5-.3,2.2-1.4.3-3.6.3-5.3,0-.3-.5-.1-1,0-1.5.5-5.4,1.1-10.7,1.6-16.1.4-4.3.8-8.5,1.2-12.8.4-4.2.8-8.4,1.2-12.6.3-3,.5-6,.8-9,.4-4.3.8-8.5,1.2-12.8.3-3,.6-6,.8-9,.1-1.4.3-2.9.4-4.2ZM442.9,146.3c0,1.4,0,2.5-.2,3.6-.6,6.5-1.1,13-1.7,19.5-.5,5.5-1.1,10.9-1.6,16.4-.2,1.6-.3,3.2-.4,4.8,0,.3,0,.7,0,1.1,1.4.2,2.6.1,3.9,0,1.3,0,2.6.2,3.9-.2,0-.2.1-.4.1-.6-1.2-14.7-2.5-29.4-3.7-44.1,0-.1-.1-.2-.4-.7Z"></path>
    <path class="cls-2" d="M895.1,190.3c1.9-.3,3.7-.2,5.1,0,0,.5.1,1,.1,1.5,0,3.4,0,6.7,0,10.1-.1,3.8-.4,7.5-1.3,11.2-.2,1-.5,1.9-.8,2.8-.9,2.7-2.6,4.4-5.4,5.1-2.5.6-4.9.6-7.4,0-2.8-.7-4.7-2.4-5.6-5.2-.5-1.6-1-3.3-1.2-5-.4-2.7-.6-5.4-.8-8.1-.6-12.5-.4-25-.2-37.5,0-3.9.3-7.7.6-11.6.2-2.4.6-4.8,1.4-7.1.3-.9.7-1.8,1.3-2.6.8-1.4,2.1-2.3,3.6-2.8,3.3-1,6.5-.9,9.7.3,2.3.9,3.6,2.8,4.2,5,.5,1.9.9,3.9,1.2,5.9.5,3.7.7,7.4.7,11.1,0,1.6,0,3.2,0,4.9,0,.6,0,1.3-.2,1.8-1.3.4-3.6.4-5,0,0-.4,0-.8,0-1.1,0-3.4,0-6.8,0-10.2,0-3-.4-5.9-1-8.8,0,0,0-.1,0-.2-.8-3.4-4.2-5-7.3-3.4-1.1.5-1.6,1.5-1.9,2.5-.4,1.4-.8,2.8-.9,4.2-.3,3-.6,6-.6,9,0,11.4,0,22.8,0,34.2,0,3.6.3,7.3.6,10.9.1,1.5.4,3.1.7,4.6.7,3.2,4,4.7,6.9,3.3.8-.4,1.4-1,1.8-1.8.3-.7.5-1.5.7-2.3,1-4.7,1.4-9.5,1.3-14.3,0-1.9,0-3.8,0-5.7,0-.2,0-.4,0-.8Z"></path>
    <path class="cls-2" d="M469.3,194.2c1.3-.3,2.9-.3,4.6,0,0,.4,0,.9,0,1.3-.2,3.9-.2,7.9,0,11.8,0,1.2.2,2.3.4,3.4.2,1,.6,2,1,2.9.6,1.4,1.7,2.1,3.3,2.2.7,0,1.5,0,2.2,0,1.3-.2,2.2-.9,2.7-2.1.7-1.7,1.1-3.4,1.3-5.2.6-5.4.4-10.7.3-16.1,0-.9-.1-1.7-.3-2.6-.2-1.3-.7-2.6-1.7-3.5-1-.9-2-1.9-3.1-2.8-1.6-1.3-3.2-2.5-4.8-3.8-1.1-.9-2.1-1.8-3-2.8-1.7-1.8-2.6-3.9-2.9-6.3-.2-1.5-.4-3.1-.4-4.7,0-4.1,0-8.2,0-12.3,0-2.3.4-4.6,1-6.8.3-1,.6-1.9,1.2-2.7.9-1.3,2.1-2.3,3.6-2.8,2.9-1,5.9-1,8.9-.1,2.2.6,3.7,2.1,4.6,4.1.7,1.5,1.1,3,1.3,4.7.2,1.6.3,3.2.4,4.8,0,3.3.1,6.6-.3,9.9,0,.4-.1.9-.2,1.4-1.6.2-3,.1-4.6,0,0-.4,0-.8,0-1.1.2-3.4.3-6.7.1-10.1,0-1.7-.4-3.4-.8-5.1-.8-3.2-4.1-4.8-7.1-3.3-.5.2-.9.7-1.3,1.1-.6.7-.9,1.5-1,2.4-.4,2-.7,4-.7,6,0,4,0,8,0,12,0,2.4.9,4.5,2.6,6.2.6.6,1.3,1.2,2,1.7,1.8,1.3,3.6,2.6,5.3,3.9,1,.7,1.9,1.5,2.8,2.4,1.9,1.8,3,4.1,3.3,6.7.2,1.9.3,3.8.3,5.7,0,2.7,0,5.4,0,8.2,0,3.5-.2,7.1-1.1,10.5-.3,1.4-.8,2.8-1.4,4.1-.8,1.9-2.2,3.2-4.3,3.7-2.3.6-4.6.7-6.9.4-3.1-.5-5.1-2.3-6.2-5.1-.7-1.8-1.1-3.6-1.3-5.5-.4-3.4-.4-6.8-.3-10.2,0-1.8.2-3.6.3-5.4,0-.3.1-.6.2-.8Z"></path>
    <path class="cls-2" d="M540.8,142.1c1.6-.3,17.1-.3,18.7,0,.3,1.2.4,3.3,0,5.1-.5.4-1.1.2-1.6.2-3.2,0-6.4,0-9.5,0-.6,0-1.2,0-1.8,0-.5.6-.3,1.1-.4,1.6,0,3.3,0,6.6,0,9.9,0,5.5,0,11,0,16.5,0,.6,0,1.2,0,2,.6,0,1.1.1,1.6.1,3.2,0,6.4,0,9.5,0,.6,0,1.1,0,1.8,0,.4,1.8,0,3.4.2,4.9-.5.6-1.1.4-1.6.4-3.2,0-6.4,0-9.5,0-.6,0-1.2,0-1.8,0-.4.6-.3,1.2-.3,1.8,0,9.2,0,18.4,0,27.6,0,.6,0,1.1,0,1.6.6.5,1.1.3,1.6.3,3.2,0,6.5,0,9.7,0,.6,0,1.1,0,1.8,0,.3,1.9.2,3.7.1,5.6-.6,0-1,.1-1.4.1-8,.2-15.6,0-17.3-.2,0-.3-.1-.6-.1-.9,0-.5,0-.9,0-1.4,0-24.4,0-48.8,0-73.2v-2.3Z"></path>
    <path class="cls-2" d="M292.9,142.1c1.6-.3,17.1-.3,18.7,0,.3,1.2.4,3.3,0,5.1-.5.4-1.1.2-1.6.2-3.2,0-6.4,0-9.5,0-.6,0-1.3,0-2,0,0,.5-.2.9-.2,1.2,0,2.3,0,4.5,0,6.8,0,6.7,0,13.3,0,20,0,.6,0,1.3,0,1.8.6.5,1.1.4,1.6.4,3.1,0,6.2,0,9.4,0,.6,0,1.3,0,1.9,0,.5.9.3,1.8.3,2.6,0,.9.1,1.7-.1,2.5-.6.4-1.2.3-1.8.3-3.1,0-6.1,0-9.2,0-.6,0-1.3,0-1.8,0-.5.7-.3,1.3-.3,1.9,0,6.4,0,12.7,0,19.1,0,2.8,0,5.6,0,8.3,0,.6,0,1.1,0,1.6.5.5,1.1.4,1.6.4,3.2,0,6.5,0,9.7,0,.6,0,1.1,0,1.7,0,.4,1.3.4,4,0,5.6-1.5.2-3.1,0-4.6.1-1.5,0-3,0-4.5,0s-3.1,0-4.7,0c-1.5,0-3,0-4.6,0,0-.4-.1-.8-.1-1.1,0-.5,0-.9,0-1.4,0-24.4,0-48.8,0-73.2v-2.3Z"></path>
    <path class="cls-2" d="M582.1,214.4c2.3,0,4.5,0,6.6,0,2.1,0,4.3-.1,6.5,0,.2,1.9,0,3.6,0,5.5-.4,0-.7.2-1.1.2-5.5,0-11,0-16.5,0-.3,0-.7,0-1-.1,0-.2-.2-.4-.2-.6,0-25.5,0-51,0-76.6,0-.3,0-.6.1-.9.4,0,.7-.2,1-.2,5.5,0,11,0,16.5,0,.3,0,.7,0,1,0,.3,1.4.4,3.7,0,5.3-.5.3-1.1.2-1.7.2-3.1,0-6.2,0-9.4,0-.6,0-1.3,0-1.9,0,0,.4-.2.8-.2,1.1,0,1.1,0,2.2,0,3.3,0,7.8,0,15.6,0,23.4,0,.7-.1,1.4.2,2,.5.4,1,.3,1.5.3,3.2,0,6.4,0,9.5,0,.6,0,1.1,0,1.7,0,.4,1.2.4,2.9.2,5.1-.4.4-1,.3-1.5.3-3.2,0-6.4,0-9.5,0-.6,0-1.2,0-1.9,0-.3.8-.2,1.5-.2,2.1,0,8.3,0,16.5,0,24.8,0,1,0,2,0,3,0,.4,0,.8.2,1.4Z"></path>
    <path class="cls-2" d="M964.4,147.5c-2.9-.2-5.5,0-8.1-.1-.4-1.2-.4-2.7-.2-5.2.5-.4,1.1-.3,1.6-.3,5.2,0,10.4,0,15.6,0,1.6,0,3.1,0,4.7,0,.6.9.3,1.9.3,2.8,0,.9.1,1.7-.2,2.7-.5,0-1,.1-1.5.1-1.6,0-3.2,0-4.9,0-.5,0-1,0-1.6.1,0,.4-.1.7-.1.9,0,.6,0,1.2,0,1.7,0,22.6,0,45.1,0,67.7,0,.7,0,1.4-.2,2.1-1.7.2-3.4.2-5.2,0,0-.3-.2-.6-.2-.9,0-.6,0-1.3,0-1.9,0-22.4,0-44.8,0-67.2,0-.8,0-1.6,0-2.6Z"></path>
    <path class="cls-2" d="M511.6,147.5c-2.9-.4-5.5,0-8.2-.3-.3-1.8-.1-3.5-.1-5.3.5,0,.9-.2,1.3-.2,6.5,0,13.1,0,19.6,0,.4,0,.8,0,1.1,0,.3,1.4.4,3.7,0,5.3-.4,0-.7.1-1.1.1-1.6,0-3.2,0-4.9,0-.6,0-1.1,0-1.8,0,0,.4-.2.7-.2,1,0,.6,0,1.3,0,1.9,0,22.4,0,44.8,0,67.2,0,.8.2,1.6-.3,2.5-1.7.3-3.4,0-5.2.1,0-.5-.1-.8-.2-1.1,0-.6,0-1.2,0-1.7,0-22.4,0-44.9,0-67.3,0-.7,0-1.5,0-2.4Z"></path>
    <path class="cls-2" d="M686.3,220.1c-5.9,0-11.7,0-17.6,0,0-.5-.1-.9-.1-1.2-.2-8.4,0-75.2.1-76.9,1.2-.3,3.4-.3,5.2,0,0,.3,0,.6.1,1,0,.6,0,1.2,0,1.7,0,22.4,0,44.8,0,67.2,0,.7-.1,1.5.2,2.3.5,0,1,.1,1.5.1,3,0,5.9,0,8.9,0,.6,0,1.1,0,1.7,0,.4,1.3.4,3.9,0,5.7Z"></path>
    <path class="cls-2" d="M617.7,214.3c4.1,0,8,0,12.1,0,.4,1,.2,1.9.2,2.8,0,.9.1,1.8-.1,2.8-.3,0-.7.1-1,.1-5.2,0-10.4,0-15.6,0-.3,0-.7,0-1.1-.1,0-.4-.1-.7-.1-1.1,0-.5,0-.9,0-1.4,0-24.4,0-48.8,0-73.2,0-.7,0-1.5,0-2.3,1.8-.4,3.5,0,5.3-.2,0,.5.1.8.1,1.2,0,.6,0,1.2,0,1.7,0,22.4,0,44.8,0,67.1,0,.7-.1,1.5.2,2.5Z"></path>
    <path class="cls-2" d="M68.9,214.3c2.1,0,4.1,0,6.1,0,2,0,3.9,0,5.8,0,.5,1.3.5,4,.1,5.5,0,0,0,0-.1.1,0,0-.1,0-.2,0-5.4,0-10.8,0-16.1,0-.3,0-.7,0-1.1,0,0-.3-.2-.6-.3-1,0-.5,0-.9,0-1.4,0-24.5,0-49,0-73.6,0-.7-.1-1.5.3-2.3,1.7,0,3.3,0,5,0,0,.4.1.6.2.9,0,.6,0,1.3,0,1.9,0,22.4,0,44.8,0,67.1,0,.7-.1,1.5.2,2.4Z"></path>
    <path class="cls-2" d="M707.3,220.1c-1.7.1-3.4,0-5.2,0,0-.4-.2-.7-.2-1,0-.5,0-.9,0-1.4,0-24.5,0-48.9,0-73.4,0-.7,0-1.5.1-2.3,1.8-.3,3.5,0,5.4-.1,0,.4.2.7.2,1,0,.5,0,.9,0,1.4,0,24.5,0,49,0,73.6,0,.7.2,1.5-.3,2.3Z"></path>
    <path class="cls-2" d="M860.8,220.1c-2,.1-3.7.2-5.5,0,0-.3-.2-.6-.2-.9,0-.6,0-1.2,0-1.7,0-24.3,0-48.6,0-72.9,0-.8,0-1.6,0-2.4,1-.5,1.9-.2,2.8-.3.9,0,1.7,0,2.7,0,0,.4.1.7.1,1,0,.5,0,.9,0,1.4,0,24.4,0,48.8,0,73.3v2.4Z"></path>
    <path class="cls-2" d="M313.6,131.9s0,0,0,0c0,0,0,0,.1,0,0,0,0,0,.1,0h-.1Z"></path>
    <path class="cls-2" d="M459.6,94.6c-.4.7-.3,1.4-.3,2.1,0,2.9,0,5.8,0,8.7,0,.5,0,.9,0,1.4,0,.2-.3.3-.4.4-.1-.2-.4-.3-.4-.5,0-1.2-.2-2.4-.2-3.6.1-2.8.2-5.7,0-8.5,0-.9.2-1.3,1-1.3,1.2,0,2.4-.3,3.6-.6.4-.1.9,0,1.4,0,0,0,.2.2.2.2,0,0,0,.2,0,.3-.4.4-.9.5-1.4.5-1.1,0-2,.3-3,.7-.2,0-.3.2-.4.3Z"></path>
    <path class="cls-2" d="M459.6,73.1c-.4.7-.3,1.3-.3,2,0,2.2,0,4.4,0,6.6,0,.3,0,.7,0,1,0,.1-.3.2-.6.4,0-.5-.2-.9-.2-1.3,0-2.8,0-5.5,0-8.3,0-1,.2-1.2,1.1-1.5.9-.3,1.8-.6,2.8-.8.9-.1,1.8-.5,2.8-.8.1.2.3.4.3.6,0,.4-.3.7-.6.7-1.2,0-2.3.4-3.4.7-.6.2-1.2.4-1.7.6Z"></path>
    <path class="cls-2" d="M499.5,87.1c-.9.4-1.8.5-2.8.7-1,.2-1.9.4-2.9.6-1.1.3-1.7.9-1.7,2.1,0,2.1-.2,4.2.1,6.2.1.8,0,1.7,0,2.6,0,.2-.2.4-.4.7-.2-.2-.3-.2-.3-.3,0-3.6,0-7.3-.1-10.9,0-.2.1-.4.2-.6.8-.5,1.7-.7,2.6-.9,1.4-.2,2.8-.5,4.3-.8.2,0,.5-.1.7-.1.3,0,.5.3.4.7Z"></path>
    <path class="cls-2" d="M480.8,89.9c1.4-.3,2.8-.5,4.1-.8.8-.1,1.6-.3,2.4-.4.1,0,.3.2.3.3,0,.1,0,.4-.1.4-.2.1-.4.2-.6.2-1.2.2-2.4.5-3.6.7-1.6.3-1.9.7-1.9,2.4,0,3.2,0,6.5,0,9.7,0,.4,0,.9-.1,1.7-.3-.4-.5-.6-.5-.8,0-1.2,0-2.3,0-3.5,0-2.9,0-5.8,0-8.7,0-.4,0-.9.1-1.4Z"></path>
    <path class="cls-2" d="M447,76.2c-.4,3.1.2,6.1,0,9.1-.7,0-.8-.4-.9-.7,0-.4-.1-.9-.1-1.4,0-2.1,0-4.3,0-6.4,0-.6,0-1.1,0-1.7,1-.2,1.9-.4,2.7-.6.8-.2,1.5-.4,2.3-.6.3,0,.6,0,.8,0,.1,0,.3.2.3.3,0,.1,0,.3-.1.5,0,0-.2.1-.3.2-1.1.2-2.1.4-3.2.7-.5.1-1,.4-1.6.7Z"></path>
    <path class="cls-2" d="M452.6,95.9c-.6.1-1.1.2-1.6.3-.8.1-1.6.3-2.4.4-.9.2-1.3.8-1.3,1.6,0,1.5,0,3,.1,4.5,0,1.7.2,3.3.2,5,0,.4-.2.7-.7.4-.2-1-.3-2-.3-3,0-2,0-3.9,0-5.9,0-.7-.1-1.4-.2-2.1,0-.7.3-1.2,1-1.4,1.4-.2,2.7-.5,4.1-.7.5,0,.9,0,1.1.8Z"></path>
    <path class="cls-2" d="M488.2,65.1c.1.5,0,.7-.4.8-1.5.4-3,.8-4.5,1.1-1,.2-1.4.6-1.6,1.5,0,.5-.2.9-.2,1.4,0,2.2-.2,4.4.2,6.6,0,.3-.1.6-.2,1,0,0-.2.1-.3.1,0,0-.2-.1-.3-.2,0-.3-.1-.7-.1-1,0-1.7,0-3.3,0-5,0-1.1-.1-2.3-.2-3.4,0-.7,0-1,.7-1.2.8-.3,1.7-.4,2.5-.7,1.1-.4,2.3-.7,3.5-.9.3,0,.7,0,1,0Z"></path>
    <path class="cls-2" d="M509.2,96.9c0-.2-.1-.4-.1-.6,0-2.8,0-5.6,0-8.5,0-.7,0-1.4-.1-2.1,0-.6-.1-1.2.4-1.7.7.5,1.4.4,2.1,0,.4-.2.9-.2,1.3-.3.9-.2,1.8-.3,2.7-.5.8-.2,1.6-.2,2.3,0,.2.5,0,.7-.3.8-.2,0-.3.1-.5.1-1.4.2-2.8.4-4.3.6-.4,0-.8,0-1.2.2-1.3.5-1.9.6-1.9,2.4,0,2.8,0,5.6,0,8.5,0,.3,0,.7-.1,1h-.3Z"></path>
    <path class="cls-2" d="M516.2,58.7c-.8.5-1.6.5-2.4.7-1.1.3-2.2.5-3.3.8-.6.1-.9.5-.9,1.1,0,.5,0,.9,0,1.4,0,2.4,0,4.9,0,7.3,0,.4,0,.8-.4,1.2-.2-.8-.5-1.6-.3-2.3.3-1.8.2-3.6.2-5.4,0-1.1.1-2.2-.4-3.1.2-.6.5-.9,1-1,1-.3,2-.6,3-.9.6-.2,1.2-.4,1.8-.5.5-.1,1-.1,1.6-.2.1.3.2.6.3.9Z"></path>
    <path class="cls-2" d="M469.8,69.4c.8-.1,1.7-.3,2.5-.4.8-.2,1.7-.4,2.5-.6.4,0,.8-.2,1.1.4-.6.3-1.2.7-1.9.8-.9.2-1.8.4-2.7.6-1,.3-1.2.5-1.2,1.6,0,1.2.1,2.4.1,3.6,0,1.1,0,2.2,0,3.3,0,.3-.2.6-.7.8,0-.7-.1-1.3-.1-1.9,0-2.5,0-5.1,0-7.6,0-.2.1-.3.2-.5Z"></path>
    <path class="cls-2" d="M441.8,96.9c-.9.9-1.7,1-2.5,1.2-1.7.5-2.3.5-2.4,3,0,1.4,0,2.8-.1,4.2,0,.3,0,.7-.2,1,0,.2-.3.2-.5.4-.1-.3-.3-.4-.3-.5,0-2.1,0-4.3,0-6.4,0-.5.1-.9.2-1.3.9-.8,1.9-1.1,2.9-1.1.5,0,1-.3,1.5-.4.4,0,.8,0,1.5,0Z"></path>
    <path class="cls-2" d="M491.5,75.3c0-.4,0-.8,0-1.2,0-2.1,0-4.2,0-6.2,0-.8-.1-1.6-.2-2.4-.1-1,.2-1.6,1.2-1.7,1.5-.2,2.9-.6,4.4-1.1.7-.2,1.3-.4,2-.6.6-.2,1.2-.2,1.8,0,.3.5,0,.7-.4.8-2,.5-4,.9-6.1,1.4-.4.1-.9.3-1.3.5-.5.2-.8.7-.8,1.2,0,.5,0,.9,0,1.4,0,2.1,0,4.3,0,6.4,0,.5,0,1,0,1.5-.1,0-.2,0-.4,0Z"></path>
    <path class="cls-2" d="M498.8,78.5c.3,0,.6,0,.7.1.2,0,.4.3.4.4,0,.2-.1.5-.3.5-.6.2-1.2.4-1.8.5-1,.2-2,.4-3.1.6-.7.1-1.4.1-2,.5-.2.1-.4.1-.7.1-.5,0-1-.2-1-.5,0-.4.3-1,.8-1,.5,0,1,0,1.5-.2,1.2-.3,2.5-.6,3.7-.9.6-.1,1.1-.2,1.6-.3Z"></path>
    <path class="cls-2" d="M435.8,79.1c0,1.3,0,2.4,0,3.5,0,1,.3,2-.1,3.2-.2-.2-.4-.3-.4-.5,0-.3-.1-.7-.1-1,0-1.7,0-3.5-.4-5.2,0-.3,0-.6,0-.9.8-.2,1.6-.5,2.3-.7.9-.2,1.9-.5,2.9-.7.2,0,.3,0,.5,0,.3,0,.6.3.6.5,0,.2-.2.4-.4.5-.9.3-1.9.4-2.8.7-.6.2-1.2.4-1.9.7Z"></path>
    <path class="cls-2" d="M510.6,103.8c-.9,0-1.4-.2-1.3-.5,0-.6.6-.7,1-.8,2.1-.4,4.3-.7,6.4-1,.2,0,.5,0,.7.1.1,0,.3.2.3.4,0,.1,0,.4-.1.5-.5.2-1,.6-1.6.6-1.5.1-3,.3-4.4.7-.3,0-.7,0-1,0Z"></path>
    <path class="cls-2" d="M510.1,77.8c-.4,0-.7,0-.9-.3-.2-.3,0-.7.5-.9.2-.1.4-.2.6-.3,1.9-.4,3.8-.7,5.7-1,.2,0,.4,0,.5,0,.2,0,.4.3.5.4,0,.2-.1.5-.3.6-.7.3-1.5.6-2.3.7-1.1.2-2.3.2-3.4.7-.3.1-.7,0-1,.1Z"></path>
    <path class="cls-2" d="M492.1,106.3c-.2,0-.5-.1-.9-.2-.1,0-.3-.2-.3-.4,0-.1.1-.4.2-.4.2-.1.5-.2.8-.2,2.1-.2,4.2-.6,6.3-1,0,0,.1,0,.2,0,.5,0,.9,0,1,.4,0,.3-.2.8-.6,1-.1,0-.3.1-.5.1-1.9.2-3.7.5-5.6.7-.2,0-.3,0-.7,0Z"></path>
    <path class="cls-2" d="M481.5,107.9c0,0-.3,0-.4,0-.2,0-.4-.3-.4-.4,0-.2.2-.5.3-.5.8-.2,1.5-.4,2.3-.6.6-.1,1.2-.3,1.8-.4.8-.1,1.7-.1,2.6-.2.2,0,.4.2.5.4,0,.2,0,.5-.2.6-.3.2-.6.5-.9.5-1.8,0-3.5.4-5.3.7,0,0-.1,0-.3,0Z"></path>
    <path class="cls-2" d="M447.8,89.7c-.2,0-.4,0-.6-.1-.2,0-.4-.3-.4-.5,0-.2.2-.5.3-.5.9-.2,1.8-.4,2.7-.6.6-.1,1.2-.3,1.8-.4.7-.1,1.4-.2,2-.2.2,0,.4.2.5.4,0,.2-.1.5-.3.6-.5.2-1.1.5-1.6.6-1.1.1-2.2.2-3.2.6-.4.1-.8.1-1.3.2Z"></path>
    <path class="cls-2" d="M477.1,83.4c-.3.6-.8.8-1.3.9-1.2.2-2.4.4-3.6.6-.5,0-1,.3-1.5.5-.5.1-.9,0-1-.4-.2-.5.1-1,.7-1.2,1.8-.3,3.6-.6,5.4-1,.5,0,.9,0,1.2.5Z"></path>
    <path class="cls-2" d="M480.9,83.3c-.1,0-.4-.2-.4-.3,0-.2.2-.5.3-.7,0,0,.2-.1.3-.1,1.2-.2,2.4-.4,3.5-.7.4,0,.9-.3,1.3-.3.4,0,.9-.2,1.4-.2.4,0,.7.3.7.6,0,.4-.2.6-.5.8,0,0-.1,0-.2,0-2,.3-4,.6-5.9.9-.1,0-.2,0-.5,0Z"></path>
    <path class="cls-2" d="M465.8,85.9c0,0-.1.3-.2.4,0,0-.2.1-.3.1-1.9.1-3.7.8-5.6,1-.2,0-.4,0-.5,0-.3-.1-.5-.3-.5-.6,0-.2.2-.5.4-.5.9-.1,1.8-.3,2.7-.6.9-.3,1.9-.4,2.8-.6.2,0,.3,0,.5,0,.4,0,.7.5.7.9Z"></path>
    <path class="cls-2" d="M465.3,109.7c-.2.2-.2.4-.4.4-1.1.3-2.2.5-3.4.7-.9.1-1.8.1-2.7.5-.6.3-1.1,0-1.2-.5,0-.4.3-.8.8-.9.5,0,.9,0,1.4-.1.7-.1,1.5-.3,2.2-.4.9-.1,1.8-.1,2.7-.2.2,0,.3.2.5.4Z"></path>
    <path class="cls-2" d="M436.1,92c-.2,0-.3-.1-.5-.2-.3-.2-.3-.8,0-.9.5-.2,1-.3,1.5-.5,1-.2,1.9-.4,2.9-.6.4,0,.9,0,1.4,0,.1,0,.3.2.3.4,0,.1,0,.4-.2.4-.6.3-1.3.5-2,.7-.9.2-1.8.4-2.7.6-.2,0-.5,0-.7,0Z"></path>
    <path class="cls-2" d="M447.1,112.5c.2-.3.3-.8.4-.8,1.7-.1,3.2-.9,4.9-.8.8,0,1.2.2,1.1.5-.1.5-.6.5-1,.5-.7.1-1.5.3-2.2.4-1,.2-2,.3-3.2,0Z"></path>
    <path class="cls-2" d="M436,114.3c-.1-.5-.1-.8.3-.9,1.6-.2,3.1-.8,4.8-.7.2,0,.5,0,.7,0,.1,0,.3.2.3.4,0,.1,0,.3-.2.4-.1.1-.3.2-.5.2-1.4.2-2.8.4-4.3.6-.4,0-.8,0-1.1,0Z"></path>
    <path class="cls-2" d="M511.1,69.9c.8-.8,1.7-1,2.8-1.2,0,.2,0,.4,0,.5-1.2,1.1-1.9,2.4-1.9,4.1-.7-1-.9-1.7-.8-3.5Z"></path>
    <path class="cls-2" d="M511.7,65.7c-1.3-1-.5-2.2-.7-3.4.9-.4,1.6-1.1,2.7-.9-.4.9-1.2,1.2-1.4,2-.2.7-.4,1.4-.7,2.2Z"></path>
    <path class="cls-2" d="M463.1,102.4c-1,1.2-2.2,2.2-2,3.8-.4.1-.5-.1-.6-.3,0-.1,0-.2-.1-.3-.5-1.9-.2-2.6,1.7-3.2.2,0,.4-.1.7-.2,0,0,0,0,.4.2Z"></path>
    <path class="cls-2" d="M511.6,91.7c0-.5-.1-1-.1-1.5,0-.7,0-1.4,0-2,.8-.9,1.7-1,2.8-.9q-1.5,1.8-2.7,4.4Z"></path>
    <path class="cls-2" d="M493.9,94.2c-.2,0-.4-.1-.5-.2-.4-.9-.1-1.8-.2-2.7.6-.9,1.5-1,2.6-1-.2.8-.9,1.2-1.3,1.8-.5.7-.2,1.5-.7,2.1Z"></path>
    <path class="cls-2" d="M483.3,72.8c-.3-.3-.5-.5-.5-.6-.2-1-.2-1.9,0-2.9.8-.3,1.4-.9,2.5-.7-.5.7-1,1.3-1.4,2-.3.6-.4,1.4-.7,2.2Z"></path>
    <path class="cls-2" d="M483.3,79.5c-.3-.5-.5-.7-.5-.9,0-.3,0-.7,0-1,0-1.7,0-1.8,1.7-2.3.2,0,.4-.1.7-.2,0,0,0,0,.2.1,0,.8-1,1.1-1.2,1.8-.2.7-.4,1.4-.8,2.4Z"></path>
    <path class="cls-2" d="M483.1,100.6c.8-.6,1.5-1,2.6-.8-.5.7-1.1,1.2-1.5,1.9-.4.7-.5,1.5-.8,2.3-.1-.1-.3-.2-.3-.3-.2-1-.2-2,0-3.2Z"></path>
    <path class="cls-2" d="M512,98.7c-.1-.8-.3-1.7-.4-2.5,0-.5.3-.9.8-1,.5-.2,1.1-.3,1.7-.5,0,.2.1.5,0,.5-1,1-1.7,2.1-1.7,3.6-.1,0-.3,0-.4,0Z"></path>
    <path class="cls-2" d="M493.9,70.4v-3.4c.7-.7,1.5-1,2.6-.8-.6.7-1.1,1.3-1.5,2-.4.7-.5,1.5-.8,2.2,0,0-.2,0-.3,0Z"></path>
    <path class="cls-2" d="M494,102.4c-.2-1.6-.3-2.9,0-4.2.9-.1,1.6-.7,2.6-.7-.6.8-1.2,1.4-1.6,2.1-.4.7-.6,1.6-1,2.7Z"></path>
    <path class="cls-2" d="M485.2,92.2c-.1.3-.1.4-.2.5-.9.7-1.4,1.6-1.5,2.8,0,.1,0,.2-.2.3,0,0-.2.1-.3.1,0,0-.2,0-.3-.2-.3-.8-.2-1.7,0-2.5,0-.1.2-.3.3-.4.6-.2,1.2-.7,2.1-.6Z"></path>
    <path class="cls-2" d="M451,76.3c-1,1.1-1.8,2-1.7,3.2-.4.3-.7,0-.7-.2,0-.7,0-1.5,0-2.3.7-.4,1.3-.9,2.5-.8Z"></path>
    <path class="cls-2" d="M472.1,75c-1-1-.5-1.9-.8-2.6q1.5-1,2.4-.7c-.7.9-1.5,1.7-1.6,3.3Z"></path>
    <path class="cls-2" d="M450.7,104.8c-.2.4-.2.6-.3.7-.7.6-1,1.3-1.1,2.2,0,.4,0,.4-.8.5,0-.6,0-1.2,0-1.9,0-.9.3-1.2,1.2-1.4.3,0,.5,0,1.1-.2Z"></path>
    <path class="cls-2" d="M437.9,108.8c-.4-1-.3-1.9-.2-2.9.7-.3,1.3-.5,2-.8,0,.2.2.4.2.5-1,.9-1.4,2-1.9,3.3Z"></path>
    <path class="cls-2" d="M473.5,78.1c-.3.5-.7,1-1,1.6-.2.5,0,1.2-.7,1.4-.3-.9-.5-1.9-.3-2.3.1-.2.3-.5.5-.6.3-.2.5-.2,1.5,0Z"></path>
    <path class="cls-2" d="M461,99.4c-.5-.9-.3-1.9-.3-2.9.6-.3,1.2-.5,1.8-.8.4.2.4.5.2.7-.9.8-1.4,1.8-1.7,3Z"></path>
    <path class="cls-2" d="M439,85.4c-.4.5-.8.9-1.1,1.5-.3.5-.3,1.1-.5,1.6-.3.1-.4,0-.4-.3,0-.5-.2-1-.3-1.5,0-.6.1-.9.6-1.1.5-.2,1-.3,1.5-.5,0,0,.2.2.2.2Z"></path>
    <path class="cls-2" d="M460.9,77.7c-.5-1.2-.5-1.5-.2-3.2.6-.2,1.2-.7,2.1-.5-.5.7-1,1.1-1.3,1.7-.3.5-.4,1.2-.6,2Z"></path>
    <path class="cls-2" d="M437.3,82.8c-.5-.7-.5-1.5-.3-2.3.1-.3.5-.6.8-.8.3-.1.8,0,1.4-.1-.8,1.1-1.7,1.9-1.9,3.2Z"></path>
    <path class="cls-2" d="M494.1,76.5c-.4-1.3-.4-1.6,0-3.2.6-.2,1.2-.4,1.9-.6.2,1-.8,1.2-1,1.8-.2.6-.5,1.2-.8,1.9Z"></path>
    <path class="cls-2" d="M462.8,80.5c-.8,1-1.7,1.9-1.6,3.5-.7-.6-.6-1.2-.6-1.6,0-.4,0-.8.1-1.2,0-.2.3-.5.6-.6.4-.2.9-.4,1.5,0Z"></path>
    <path class="cls-2" d="M450.4,82.6c-.9,1-1.3,2.1-1.7,3.3-.5-1.1-.5-1.3-.2-2.9.5-.3,1.2-.5,1.9-.4Z"></path>
    <path class="cls-2" d="M450.3,98.2c0,.5-.5.7-.7,1.1-.2.3-.4.7-.5,1.1-.2.4-.3.8-.6,1.6-.3-1.3-.3-2.3,0-3.2,1.1-.6,1.1-.6,1.9-.6Z"></path>
    <path class="cls-2" d="M438.4,103c0-.7-.2-1.3-.2-1.9,0-.7.3-1.1,1.1-1.3.2,0,.5,0,.7,0,0,0,.2,0,.3.1-.6,1-1.2,2-1.8,3.1Z"></path>
    <path class="cls-2" d="M559.7,73.1c0-.7.2-1.5.3-2.2,1.3-.2,1.8,0,2.4.7q-1.5.8-2,2.7c0,.1,0,.2-.1.3,0,.2-.2.3-.3.4,0,0-.2.2-.3.3-.4,0-.8,0-1.3-.2-.2-1.3-.2-2.6.1-3.8.2-.9.3-1.8.2-2.7,0-.9,0-1.7,0-2.6,0-1.1,0-2.2-.1-3.3,0-.5,0-.9.3-1.3.2-.3.5-.5.9-.4,1.6.5,3.2.9,4.7,1.8.2.1.4.4.6.7-.8.3-1.5.2-2.1-.1-.7-.3-1.5-.7-2.2-.9-.9-.3-1.3,0-1.4.9,0,.5,0,.9,0,1.4,0,1.6-.1,3.1,0,4.7,0,1.3,0,2.5.6,3.7Z"></path>
    <path class="cls-2" d="M546.7,97.6c-.4-1.5-.4-2.9-.3-4.3,0-.7,0-1.4,0-2.1,0-1,0-2.1.2-3.1.2-1.4,0-2.9,0-4.3,0-.3,0-.7,0-1,0-.4.3-.8.8-.7.6,0,1.2,0,1.7.2,1.3.4,2.7.8,4,1.2.2,0,.4.3.7.4-.2.6-.7.6-1.1.5-.9-.3-1.9-.6-2.8-.9-.2,0-.4-.2-.7-.2-1.6-.3-1.9,0-1.9,1.5,0,3.3,0,6.6-.2,9.9,0,.9-.2,1.7-.3,2.6,0,.1-.2.3-.2.4Z"></path>
    <path class="cls-2" d="M559.3,86.4c-.1.5-.2.9-.3,1.3,0,3.6-.2,7.2-.2,10.7,0,.3,0,.7,0,1,0,.2-.2.4-.3.5-.5-.2-.4-.6-.4-.9,0-2.6,0-5.2,0-7.8,0-1.5,0-3,0-4.5,0-.3,0-.7,0-1,0-.6.6-.9,1.1-.7.7.3,1.5.6,2.3.7.7.1,1.3.4,2,.5.2,0,.3,0,.5.2.3.1.5.3.5.6,0,.4-.4.4-.7.3-.5,0-1.1-.1-1.5-.4-.9-.5-1.9-.5-3.1-.7Z"></path>
    <path class="cls-2" d="M547,70.9c0-.2,0-.4,0-.6,0-2.2,0-4.4,0-6.6,0-.7,0-1.5.2-2.2,0-.5,0-1-.1-1.5-.2-1-.2-2.1.3-3,.2-.3.5-.5.8-.4.3,0,.6.1.8.2,1.5.6,3,1.1,4.5,1.8.3.1.5.4.7.6-.1.5-.4.7-.8.6-.5-.1-1-.4-1.4-.6-.9-.4-1.8-.8-2.7-1.2-.4-.2-.9-.3-1.4,0-.3,1.4-.2,2.8-.2,4.3,0,.9,0,1.7-.3,2.5-.2.4-.1.9,0,1.3.4.8.4,1.7,0,2.5-.1.4,0,.9-.1,1.4,0,.3,0,.7-.1,1-.1,0-.3,0-.4,0Z"></path>
    <path class="cls-2" d="M578.9,83.2c-.5-1.3-.7-2.3-.6-3.4.3-2.7.4-5.4.4-8.1,0-.6,0-1.2,0-1.7,0-.8.6-1.1,1.3-.9.2,0,.4.1.6.2.9.4,1.8.7,2.7,1.1.4.2.5.3.8,1-1.5.2-2.7-1-4.2-1.1-.5.7-.6,1.6-.6,2.4,0,2.8-.1,5.7-.2,8.5,0,.6,0,1.1-.4,2Z"></path>
    <path class="cls-2" d="M569.6,79c-.1-.6-.2-.9-.2-1.1,0-3.9,0-7.8,0-11.7,0-.2,0-.4.2-.7.7-.3,1.4-.1,2,0,1,.3,1.9.8,2.8,1.3.3.1.4.5.6.7-.7.4-1.2.2-1.7,0-.8-.4-1.6-.8-2.7-.8-.1.4-.3.7-.3,1.1-.1.8-.2,1.6-.2,2.4,0,.3,0,.6,0,.8.5.9.4,1.9.2,2.9-.2,1-.4,2-.1,3.1,0,.4,0,.8,0,1.2,0,.2-.2.3-.5.8Z"></path>
    <path class="cls-2" d="M569.4,88.6c.6,0,.9-.1,1.3,0,1.4.2,2.7.6,4,1.1.4.2.5.4.3.9-.3,0-.7,0-1.1-.2-.8-.2-1.6-.5-2.5-.7-.8-.2-1.2.1-1.3,1,0,1.2-.1,2.3-.1,3.5,0,2.7,0,5.3,0,8,0,.3,0,.5-.1.8-.5,0-.6-.3-.6-.6,0-.9,0-1.7,0-2.6,0-3,0-6,0-9,0-.6,0-1.3,0-2Z"></path>
    <path class="cls-2" d="M603.3,98.3c0,.6-.4.8-.8.6-.8-.5-1.8-.5-2.6-.8-.2,0-.6,0-.9,0-.6,1.1-.7,2.2-.7,3.4,0,1.7,0,3.5,0,5.2,0,.5,0,.9,0,1.4,0,.2-.3.4-.4.4-.2,0-.4-.2-.5-.4,0-.6-.1-1.3,0-1.9.2-2.5.6-4.9.5-7.4,0-.1,0-.2,0-.3.1-1.2.6-1.6,1.9-1.3,1.3.4,2.6.3,3.8,1.2Z"></path>
    <path class="cls-2" d="M589.4,84.5c0-.5-.1-1-.1-1.5,0-2.8.1-5.7.1-8.5,0-1.1.5-1.7,1.8-1.3,1,.4,2,.8,3.1,1.2.4.1.5.5.3.9-.5.2-1.1,0-1.6-.2-.6-.3-1.1-.6-1.7-.8-.6-.2-1.1.1-1.1.7.1,2.6-.2,5.3-.2,7.9,0,.5.1,1-.6,1.4Z"></path>
    <path class="cls-2" d="M605.4,99.3c.5-.3,1-.2,1.4-.1.8.2,1.6.4,2.3.6.2,0,.4.2.6.4,0,.1.2.3.1.5,0,.1-.3.3-.4.3-.5,0-.9-.2-1.4-.3-.3,0-.5-.2-.8-.3-.7-.2-1.1.1-1.3.8,0,.6-.1,1.1-.1,1.7,0,2.5,0,5.1,0,7.6,0,.4,0,.9-.3,1.3-.5-.9-.7-1.6-.6-2.4.4-3.2.4-6.3.3-9.5,0-.2,0-.3.1-.6Z"></path>
    <path class="cls-2" d="M598.7,87.9c-.7,0-.8-.4-.7-.7,0-.8.1-1.6.2-2.4.1-2.6.2-5.2.3-7.9.3,0,.6-.2.9,0,1.2.4,2.4.8,3.6,1.3.6.2.7.5.8,1.3-.1,0-.2.1-.3.1-1.2-.5-2.4-1-3.7-1.5-.7.7-.7,1.6-.8,2.4,0,2.1-.1,4.3-.2,6.4,0,.3,0,.7-.1,1.1Z"></path>
    <path class="cls-2" d="M578.3,91.6c.4-.1.8-.4,1.2-.4,1.4.2,2.7.5,4,1.1.2,0,.3.4.4.7-.6.3-1,.1-1.4,0-.7-.2-1.4-.4-2.2-.6-.6-.1-.9.1-1.1.8,0,.2-.1.4-.1.7,0,1.4,0,2.8-.1,4.1,0,2.4,0,4.8-.2,7.3,0,.2-.1.4-.3.7-.1-.3-.3-.4-.3-.6,0-4.6,0-9.1.1-13.7Z"></path>
    <path class="cls-2" d="M590.3,95.3c-.4.2-.8.5-.8,1,0,.7-.1,1.5-.1,2.2,0,2.7,0,5.4,0,8.1,0,.3,0,.7,0,1-.4.2-.7,0-.7-.2.4-4.1.2-8.3.4-12.5,0-.1,0-.2,0-.3.4-.4.9-.4,1.5-.3,1.1.2,2.2.4,3.2.7.4,0,.7.4,1,.6.1.1.3.4.2.6-.1.3-.4.3-.7.2-1.3-.5-2.5-1.1-4-1.1Z"></path>
    <path class="cls-2" d="M606.3,79.7c1.1.4,2.3.9,3.4,1.3.2,0,.4.4.6.6-.9.4-.9.4-1.5.1-.7-.4-1.4-.5-2.1-.4-.5.4-.5.9-.5,1.3,0,1.3,0,2.5,0,3.8,0,.3,0,.7-.1,1,0,.1-.2.3-.4.3-.1,0-.4-.2-.4-.3,0-.6,0-1.2,0-1.7.2-1.5.3-3,0-4.5-.1-.6,0-1.1.7-1.6Z"></path>
    <path class="cls-2" d="M553.7,76c-.4.1-.7.3-.9.2-.7-.2-1.4-.5-2.1-.7-1.2-.4-2.4-.7-3.6-1.1-.3,0-.5-.3-.7-.4,0-.6.4-.8.8-.8.4,0,.8.1,1.2.2,1.1.3,2.2.7,3.2,1.1.7.3,1.5.5,2.1,1.5Z"></path>
    <path class="cls-2" d="M553.9,102.5c-.3.3-.5.6-.7.6-.4,0-.8.1-1.2,0-1-.4-2.1-.5-3.2-.7-.4,0-.8-.2-1.2-.3-.4-.1-.7-.4-.6-.7.1-.3.4-.5.7-.4,2,.4,4.1.5,6.1,1.5Z"></path>
    <path class="cls-2" d="M569.6,106.3c.2-.2.4-.5.7-.6.5,0,1.1,0,1.5,0,.9.3,1.8.4,2.7.6.4,0,.7.3,1,.5.1,0,.2.5,0,.6,0,.2-.3.3-.5.3-.2,0-.3,0-.5,0-1.2-.2-2.4-.4-3.6-.6-.6,0-1.1-.2-1.5-.9Z"></path>
    <path class="cls-2" d="M564.4,105.3c-.7.4-1.3.3-1.8,0-.7-.4-1.4-.4-2.2-.5-.7,0-1.3-.3-2-.5-.2,0-.3-.3-.3-.5,0-.3.3-.5.6-.5.3,0,.7,0,1,.1.8.3,1.7.4,2.5.5.6.1,1.2.4,1.8.6.2,0,.2.4.4.7Z"></path>
    <path class="cls-2" d="M575.2,83.4s-.3.3-.6.2c-.5-.2-.9-.4-1.4-.5-.9-.3-1.9-.6-2.8-.9-.3,0-.5-.2-.7-.4-.2-.1-.1-.7.1-.7.3,0,.6-.1.8,0,1.3.4,2.5.8,3.8,1.2.5.2.8.5.8,1.3Z"></path>
    <path class="cls-2" d="M558.6,77c1,.3,2.2.6,3.3,1,0,0,.1,0,.2,0,.3.4.9.6.9,1.2,0,.3-.5.2-1.3,0-1-.3-2-.6-3-.8-.2,0-.5,0-.7-.1-.3-.1-.4-.3-.4-.7,0-.3.3-.5.6-.6.1,0,.2,0,.5,0Z"></path>
    <path class="cls-2" d="M602.9,93c-.4,0-.7.1-1,0-1.2-.5-2.4-.9-3.6-1.1-.1,0-.2,0-.3-.2,0-.2-.2-.4-.2-.6,0-.1.2-.2.3-.3,0,0,.2,0,.3,0,1.5.1,2.8.6,4,1.4.2.1.2.5.4.8Z"></path>
    <path class="cls-2" d="M597.1,112.2c.3-.2.5-.5.7-.5.4,0,.9,0,1.4,0,.8.1,1.6.4,2.3.6.1,0,.2,0,.3.2.1.2.3.4.3.6,0,.2-.3.4-.5.4-.2,0-.4,0-.7,0-.7,0-1.4-.2-2-.2-.7,0-1.2-.2-1.7-1Z"></path>
    <path class="cls-2" d="M560.7,88.1c.8,0,1.3.5,2.2.7-.3.4-.4.6-.5.7-.9.3-1.3,1-1.6,1.9-.1.4-.1.9-.6,1.2-.4-1.1-.3-2.5.5-4.4Z"></path>
    <path class="cls-2" d="M571.4,91.1c.7.2,1.3.3,1.8.4.1,0,.3.2.3.3,0,.1,0,.4-.2.4-1.3.4-1.6,1.5-1.8,2.7,0,.2,0,.2-.6.5,0-1.2.2-2.4.2-3.6,0-.2.2-.4.3-.8Z"></path>
    <path class="cls-2" d="M578.3,108.2c1.1-.4,2.1-.2,3,0,.7,0,1.5.3,2.2.5.3,0,.5.3.5.6,0,.3-.3.5-.6.5-.3,0-.7,0-1-.1-1.1-.5-2.2-.6-3.4-.7-.4,0-.6-.3-.7-.8Z"></path>
    <path class="cls-2" d="M583.8,86.5c-.5,0-.9,0-1.3,0-1.2-.4-2.3-1-3.6-1.1,0,0-.2-.1-.3-.2,0,0-.2-.2-.1-.3,0-.1.1-.4.3-.4.3,0,.6-.1.8,0,1.3.1,2.6.4,3.7,1.2.1,0,.3.2.3.4,0,0,0,.2.1.5Z"></path>
    <path class="cls-2" d="M594.1,89.9c-.2,0-.4.2-.6.2-.5-.2-1.1-.3-1.6-.6-.6-.3-1.2-.5-1.8-.5-.3,0-.7-.2-.9-.3-.3-.1-.4-.4-.3-.7.1-.3.4-.5.7-.4,1.1.4,2.3.7,3.4,1.1.4.1.7.4,1,.7.1,0,.1.3.2.6Z"></path>
    <path class="cls-2" d="M548.8,64.2c-.1-1.7,0-3.1.7-4.7.7.3,1.3.6,2.1.9-.2.2-.3.5-.5.6-.8.4-1.3,1.1-1.4,2,0,.4-.2.9-.8,1.2Z"></path>
    <path class="cls-2" d="M548.8,93.8c.8.3,1.4.6,2.2.9-.6.6-1.3,1.1-1.7,1.7-.4.6-.5,1.4-.9,2.3-.2-.5-.3-.6-.3-.8,0-1.3.3-2.6.7-4.1Z"></path>
    <path class="cls-2" d="M562.8,96.8c-1.1.5-1.8,1.4-2,2.7,0,.1,0,.2-.1.3-.1,0-.3.2-.4.2-.1,0-.3-.3-.3-.4.2-1.3.4-2.6.6-3.9.8-.1,1.4.5,2.1.7,0,0,0,.2.1.4Z"></path>
    <path class="cls-2" d="M574,69.3c-2.3,1.5-2,1.5-2.6,3.6-.1-.1-.3-.2-.4-.3-.1-1.3,0-2.5.3-3.8,0,0,.1-.2.3-.3.8,0,1.5.4,2.4.7Z"></path>
    <path class="cls-2" d="M549,71.5c-.4-1.3-.3-2.7-.2-4,1-.6,1.8,0,2.6.5-.6.5-1.4.7-1.7,1.4-.3.7-.5,1.4-.8,2.1Z"></path>
    <path class="cls-2" d="M571.9,99.4c.6.2,1.3.4,1.9.6,0,.2,0,.5,0,.5-1.5.5-1.9,1.8-2.2,3.2,0,0,0,0-.2.3-.1-.2-.3-.3-.3-.5,0-1,.1-2.1.2-3.1,0-.4.2-.8.6-1Z"></path>
    <path class="cls-2" d="M560.3,68.1c0-1.4,0-2.7.3-4.2.5.1.8.2,1.2.3.4.1.7.2,1.3.4-.2.3-.3.6-.4.6-1,.2-1.3,1-1.7,1.8-.1.4-.2.7-.3,1.1h-.4Z"></path>
    <path class="cls-2" d="M589.1,109.9c.4,0,.8-.1,1.2,0,.9.1,1.8.4,2.7.6.1,0,.3,0,.3.2.1.3.2.5.2.8,0,.3-.3.5-.6.4-1.2-.3-2.4-.4-3.5-.9-.4-.2-.4-.5-.3-.9Z"></path>
    <path class="cls-2" d="M574,76.3c-1.2.4-1.8,1.1-1.9,2.1,0,.5-.4.9-.6,1.4,0,0-.3,0-.3,0-.2-1.5,0-2.9.4-4.3,1.5,0,1.6,0,2.3.9Z"></path>
    <path class="cls-2" d="M579.7,98.4c-.6-1,0-1.6,0-2.4,0-.7.1-1.3.2-2,1.1-.3,1.7.2,2.6.7-1.3.5-2,1.4-2.2,2.7,0,.3-.3.5-.6,1Z"></path>
    <path class="cls-2" d="M579.7,106.1c-.2-.5-.3-.7-.3-.8.2-1.2.4-2.5.6-3.7q1.4,0,2.4.8c-1.3.4-1.9,1.3-2.2,2.6,0,.3-.3.6-.6,1.1Z"></path>
    <path class="cls-2" d="M549,89.1c-.5-1.3-.2-2.7-.2-4,1.1-.4,1.8,0,2.6.5,0,.1,0,.3-.1.3-1,.2-1.5,1-1.9,1.9-.2.4-.2.9-.4,1.3Z"></path>
    <path class="cls-2" d="M580.7,78.6c.8,0,1.4.2,2,.6-.4.3-.8.6-1.1.8-.4.3-.5.7-.7,1.2-.1.4-.3.8-.5,1.2-.2,0-.4-.1-.4-.2-.2-1.3,0-2.5.6-3.7Z"></path>
    <path class="cls-2" d="M606.1,93.8c1.2,0,2.3,0,3.2.8.1.1.2.4.2.6,0,.1-.2.3-.3.3-1.2,0-2.3-.4-3.1-1.3,0,0,0-.1,0-.4Z"></path>
    <path class="cls-2" d="M605,114.7c.1-.2.2-.5.3-.6,1.1-.3,2.1-.2,3.2.3.3.1.4.4.3.7-.1.3-.4.4-.7.4-1-.2-2-.5-3-.8Z"></path>
    <path class="cls-2" d="M609.4,108.8c-1.3.5-1.6,1.5-1.9,2.5-.2,0-.3-.1-.4-.2,0-.8,0-1.6,0-2.4,0-.4.4-.7.8-.7.5,0,1,0,1.4.8Z"></path>
    <path class="cls-2" d="M591.5,79.3c-.6-1.1-.5-2.2,0-3.4.7.1,1.3.3,2,.4-.2.3-.2.6-.4.7-.8.4-1.2,1-1.3,1.9,0,.2-.1.3-.2.4Z"></path>
    <path class="cls-2" d="M607.2,101.7c1-.4,1.5,0,2.1.5-.4.4-.9.7-1.1,1.1-.3.5-.4,1-.7,1.6-.1-.1-.3-.2-.3-.3,0-1,0-1.9,0-3Z"></path>
    <path class="cls-2" d="M580.2,75.6c.1-1.2.3-2.3.4-3.5.8-.2,1.5-.1,2,.7-1.1.5-1.6,1.4-1.7,2.5,0,.1-.2.3-.3.4,0,0-.1,0-.4,0Z"></path>
    <path class="cls-2" d="M601.8,86.4c-1.1.7-1.6,1.6-2,2.6-.4-.7-.5-1.5-.4-2.3q0-.3.8-.9c.4.1.8.3,1.6.6Z"></path>
    <path class="cls-2" d="M590.8,96.8c.7-.2,1.3,0,1.8.4,0,.2,0,.4-.1.4-.9.4-1.4,1.2-1.4,2.4-.3-.4-.5-.5-.5-.7,0-.9,0-1.8.3-2.6Z"></path>
    <path class="cls-2" d="M607.4,86c-.4-2-.3-2.3.6-3.3.4.2.8.3,1.3.5-.4.4-.7.8-1,1.2-.3.4-.5.9-.9,1.6Z"></path>
    <path class="cls-2" d="M601.3,99.9c-1.1.6-1.4,1.8-2.1,2.9-.5-1.5.1-2.5.3-3.5.2,0,.4,0,.4,0,.4.2.8.4,1.3.7Z"></path>
    <path class="cls-2" d="M590.8,107.2q-.4-.8,0-3.1c.8-.4,1.3,0,1.9.5-1.3,1-1.3,1.1-1.9,2.7Z"></path>
    <path class="cls-2" d="M601.2,107.1c-1.2.8-1.7,1.8-2,3-.2-.1-.3-.2-.3-.2,0-.9,0-1.7,0-2.6,0-.8.5-.9,1.2-.6.3,0,.5.2,1,.5Z"></path>
    <path class="cls-2" d="M590.9,85.5c.2-1.2,0-2.3.5-3.2.6-.2,1,.2,1.4.5,0,.1,0,.3,0,.3-.6.6-1.1,1.2-1.2,2,0,.1-.3.2-.7.4Z"></path>
    <path class="cls-2" d="M606.8,92.2c-.3-1.1-.1-1.9,0-2.7,0-.2.3-.4.5-.4.4,0,.8,0,1.2.1.2,0,.3.4.2.5-.9.5-1.1,1.5-1.8,2.4Z"></path>
    <path class="cls-2" d="M602.1,80.4c-.7.9-1.2,1.7-1.8,2.6-.2,0-.2-.2-.2-.4,0-.6,0-1.3,0-1.9,0-.4.3-.6.7-.6.4,0,.8.2,1.2.3Z"></path>
    <path class="cls-2" d="M560.1,32c-1,.5-1.6.4-2.2.3,0,0-.2-.2-.2-.2,0-.1.1-.3.3-.4.6-.2,1.2,0,2.1.3Z"></path>
  </g>
  <polygon class="cls-1" points="1033.6 282.9 916.8 282.9 916.8 281.9 1032.5 281.9 1032.5 70 916.8 70 916.8 68.9 1033.6 68.9 1033.6 282.9"></polygon>
  <polygon class="cls-1" points="116.8 282.9 0 282.9 0 68.9 116.8 68.9 116.8 70 1.1 70 1.1 281.9 116.8 281.9 116.8 282.9"></polygon>
</svg>
